<?xml version="1.0" encoding="utf-8" standalone="no"?>
<!DOCTYPE svg PUBLIC "-//W3C//DTD SVG 1.1//EN"
  "http://www.w3.org/Graphics/SVG/1.1/DTD/svg11.dtd">
<!-- Created with matplotlib (http://matplotlib.org/) -->
<svg height="1008pt" version="1.1" viewBox="0 0 1440 1008" width="1440pt" xmlns="http://www.w3.org/2000/svg" xmlns:xlink="http://www.w3.org/1999/xlink">
 <defs>
  <style type="text/css">
*{stroke-linecap:butt;stroke-linejoin:round;}
  </style>
 </defs>
 <g id="figure_1">
  <g id="patch_1">
   <path d="M 0 1008 
L 1440 1008 
L 1440 0 
L 0 0 
z
" style="fill:#ffffff;"/>
  </g>
  <g id="axes_1">
   <g id="patch_2">
    <path d="M 180 897.12 
L 1296 897.12 
L 1296 120.96 
L 180 120.96 
z
" style="fill:#ffffff;"/>
   </g>
   <g id="matplotlib.axis_1">
    <g id="xtick_1">
     <g id="line2d_1">
      <defs>
       <path d="M 0 0 
L 0 3.5 
" id="m0e6ed83da5" style="stroke:#000000;stroke-width:0.8;"/>
      </defs>
      <g>
       <use style="stroke:#000000;stroke-width:0.8;" x="192.039403" xlink:href="#m0e6ed83da5" y="897.12"/>
      </g>
     </g>
     <g id="text_1">
      <!-- 5.0 -->
      <defs>
       <path d="M 10.796875 72.90625 
L 49.515625 72.90625 
L 49.515625 64.59375 
L 19.828125 64.59375 
L 19.828125 46.734375 
Q 21.96875 47.46875 24.109375 47.828125 
Q 26.265625 48.1875 28.421875 48.1875 
Q 40.625 48.1875 47.75 41.5 
Q 54.890625 34.8125 54.890625 23.390625 
Q 54.890625 11.625 47.5625 5.09375 
Q 40.234375 -1.421875 26.90625 -1.421875 
Q 22.3125 -1.421875 17.546875 -0.640625 
Q 12.796875 0.140625 7.71875 1.703125 
L 7.71875 11.625 
Q 12.109375 9.234375 16.796875 8.0625 
Q 21.484375 6.890625 26.703125 6.890625 
Q 35.15625 6.890625 40.078125 11.328125 
Q 45.015625 15.765625 45.015625 23.390625 
Q 45.015625 31 40.078125 35.4375 
Q 35.15625 39.890625 26.703125 39.890625 
Q 22.75 39.890625 18.8125 39.015625 
Q 14.890625 38.140625 10.796875 36.28125 
z
" id="DejaVuSans-35"/>
       <path d="M 10.6875 12.40625 
L 21 12.40625 
L 21 0 
L 10.6875 0 
z
" id="DejaVuSans-2e"/>
       <path d="M 31.78125 66.40625 
Q 24.171875 66.40625 20.328125 58.90625 
Q 16.5 51.421875 16.5 36.375 
Q 16.5 21.390625 20.328125 13.890625 
Q 24.171875 6.390625 31.78125 6.390625 
Q 39.453125 6.390625 43.28125 13.890625 
Q 47.125 21.390625 47.125 36.375 
Q 47.125 51.421875 43.28125 58.90625 
Q 39.453125 66.40625 31.78125 66.40625 
z
M 31.78125 74.21875 
Q 44.046875 74.21875 50.515625 64.515625 
Q 56.984375 54.828125 56.984375 36.375 
Q 56.984375 17.96875 50.515625 8.265625 
Q 44.046875 -1.421875 31.78125 -1.421875 
Q 19.53125 -1.421875 13.0625 8.265625 
Q 6.59375 17.96875 6.59375 36.375 
Q 6.59375 54.828125 13.0625 64.515625 
Q 19.53125 74.21875 31.78125 74.21875 
z
" id="DejaVuSans-30"/>
      </defs>
      <g transform="translate(184.08784 911.718438)scale(0.1 -0.1)">
       <use xlink:href="#DejaVuSans-35"/>
       <use x="63.623047" xlink:href="#DejaVuSans-2e"/>
       <use x="95.410156" xlink:href="#DejaVuSans-30"/>
      </g>
     </g>
    </g>
    <g id="xtick_2">
     <g id="line2d_2">
      <g>
       <use style="stroke:#000000;stroke-width:0.8;" x="331.691471" xlink:href="#m0e6ed83da5" y="897.12"/>
      </g>
     </g>
     <g id="text_2">
      <!-- 7.5 -->
      <defs>
       <path d="M 8.203125 72.90625 
L 55.078125 72.90625 
L 55.078125 68.703125 
L 28.609375 0 
L 18.3125 0 
L 43.21875 64.59375 
L 8.203125 64.59375 
z
" id="DejaVuSans-37"/>
      </defs>
      <g transform="translate(323.739909 911.718438)scale(0.1 -0.1)">
       <use xlink:href="#DejaVuSans-37"/>
       <use x="63.623047" xlink:href="#DejaVuSans-2e"/>
       <use x="95.410156" xlink:href="#DejaVuSans-35"/>
      </g>
     </g>
    </g>
    <g id="xtick_3">
     <g id="line2d_3">
      <g>
       <use style="stroke:#000000;stroke-width:0.8;" x="471.343539" xlink:href="#m0e6ed83da5" y="897.12"/>
      </g>
     </g>
     <g id="text_3">
      <!-- 10.0 -->
      <defs>
       <path d="M 12.40625 8.296875 
L 28.515625 8.296875 
L 28.515625 63.921875 
L 10.984375 60.40625 
L 10.984375 69.390625 
L 28.421875 72.90625 
L 38.28125 72.90625 
L 38.28125 8.296875 
L 54.390625 8.296875 
L 54.390625 0 
L 12.40625 0 
z
" id="DejaVuSans-31"/>
      </defs>
      <g transform="translate(460.210727 911.718438)scale(0.1 -0.1)">
       <use xlink:href="#DejaVuSans-31"/>
       <use x="63.623047" xlink:href="#DejaVuSans-30"/>
       <use x="127.246094" xlink:href="#DejaVuSans-2e"/>
       <use x="159.033203" xlink:href="#DejaVuSans-30"/>
      </g>
     </g>
    </g>
    <g id="xtick_4">
     <g id="line2d_4">
      <g>
       <use style="stroke:#000000;stroke-width:0.8;" x="610.995607" xlink:href="#m0e6ed83da5" y="897.12"/>
      </g>
     </g>
     <g id="text_4">
      <!-- 12.5 -->
      <defs>
       <path d="M 19.1875 8.296875 
L 53.609375 8.296875 
L 53.609375 0 
L 7.328125 0 
L 7.328125 8.296875 
Q 12.9375 14.109375 22.625 23.890625 
Q 32.328125 33.6875 34.8125 36.53125 
Q 39.546875 41.84375 41.421875 45.53125 
Q 43.3125 49.21875 43.3125 52.78125 
Q 43.3125 58.59375 39.234375 62.25 
Q 35.15625 65.921875 28.609375 65.921875 
Q 23.96875 65.921875 18.8125 64.3125 
Q 13.671875 62.703125 7.8125 59.421875 
L 7.8125 69.390625 
Q 13.765625 71.78125 18.9375 73 
Q 24.125 74.21875 28.421875 74.21875 
Q 39.75 74.21875 46.484375 68.546875 
Q 53.21875 62.890625 53.21875 53.421875 
Q 53.21875 48.921875 51.53125 44.890625 
Q 49.859375 40.875 45.40625 35.40625 
Q 44.1875 33.984375 37.640625 27.21875 
Q 31.109375 20.453125 19.1875 8.296875 
z
" id="DejaVuSans-32"/>
      </defs>
      <g transform="translate(599.862795 911.718438)scale(0.1 -0.1)">
       <use xlink:href="#DejaVuSans-31"/>
       <use x="63.623047" xlink:href="#DejaVuSans-32"/>
       <use x="127.246094" xlink:href="#DejaVuSans-2e"/>
       <use x="159.033203" xlink:href="#DejaVuSans-35"/>
      </g>
     </g>
    </g>
    <g id="xtick_5">
     <g id="line2d_5">
      <g>
       <use style="stroke:#000000;stroke-width:0.8;" x="750.647675" xlink:href="#m0e6ed83da5" y="897.12"/>
      </g>
     </g>
     <g id="text_5">
      <!-- 15.0 -->
      <g transform="translate(739.514863 911.718438)scale(0.1 -0.1)">
       <use xlink:href="#DejaVuSans-31"/>
       <use x="63.623047" xlink:href="#DejaVuSans-35"/>
       <use x="127.246094" xlink:href="#DejaVuSans-2e"/>
       <use x="159.033203" xlink:href="#DejaVuSans-30"/>
      </g>
     </g>
    </g>
    <g id="xtick_6">
     <g id="line2d_6">
      <g>
       <use style="stroke:#000000;stroke-width:0.8;" x="890.299744" xlink:href="#m0e6ed83da5" y="897.12"/>
      </g>
     </g>
     <g id="text_6">
      <!-- 17.5 -->
      <g transform="translate(879.166931 911.718438)scale(0.1 -0.1)">
       <use xlink:href="#DejaVuSans-31"/>
       <use x="63.623047" xlink:href="#DejaVuSans-37"/>
       <use x="127.246094" xlink:href="#DejaVuSans-2e"/>
       <use x="159.033203" xlink:href="#DejaVuSans-35"/>
      </g>
     </g>
    </g>
    <g id="xtick_7">
     <g id="line2d_7">
      <g>
       <use style="stroke:#000000;stroke-width:0.8;" x="1029.951812" xlink:href="#m0e6ed83da5" y="897.12"/>
      </g>
     </g>
     <g id="text_7">
      <!-- 20.0 -->
      <g transform="translate(1018.818999 911.718438)scale(0.1 -0.1)">
       <use xlink:href="#DejaVuSans-32"/>
       <use x="63.623047" xlink:href="#DejaVuSans-30"/>
       <use x="127.246094" xlink:href="#DejaVuSans-2e"/>
       <use x="159.033203" xlink:href="#DejaVuSans-30"/>
      </g>
     </g>
    </g>
    <g id="xtick_8">
     <g id="line2d_8">
      <g>
       <use style="stroke:#000000;stroke-width:0.8;" x="1169.60388" xlink:href="#m0e6ed83da5" y="897.12"/>
      </g>
     </g>
     <g id="text_8">
      <!-- 22.5 -->
      <g transform="translate(1158.471067 911.718438)scale(0.1 -0.1)">
       <use xlink:href="#DejaVuSans-32"/>
       <use x="63.623047" xlink:href="#DejaVuSans-32"/>
       <use x="127.246094" xlink:href="#DejaVuSans-2e"/>
       <use x="159.033203" xlink:href="#DejaVuSans-35"/>
      </g>
     </g>
    </g>
   </g>
   <g id="matplotlib.axis_2">
    <g id="ytick_1">
     <g id="line2d_9">
      <defs>
       <path d="M 0 0 
L -3.5 0 
" id="ma4dbb0c198" style="stroke:#000000;stroke-width:0.8;"/>
      </defs>
      <g>
       <use style="stroke:#000000;stroke-width:0.8;" x="180" xlink:href="#ma4dbb0c198" y="897.12"/>
      </g>
     </g>
     <g id="text_9">
      <!-- 0 -->
      <g transform="translate(166.6375 900.919219)scale(0.1 -0.1)">
       <use xlink:href="#DejaVuSans-30"/>
      </g>
     </g>
    </g>
    <g id="ytick_2">
     <g id="line2d_10">
      <g>
       <use style="stroke:#000000;stroke-width:0.8;" x="180" xlink:href="#ma4dbb0c198" y="790.745711"/>
      </g>
     </g>
     <g id="text_10">
      <!-- 1000 -->
      <g transform="translate(147.55 794.54493)scale(0.1 -0.1)">
       <use xlink:href="#DejaVuSans-31"/>
       <use x="63.623047" xlink:href="#DejaVuSans-30"/>
       <use x="127.246094" xlink:href="#DejaVuSans-30"/>
       <use x="190.869141" xlink:href="#DejaVuSans-30"/>
      </g>
     </g>
    </g>
    <g id="ytick_3">
     <g id="line2d_11">
      <g>
       <use style="stroke:#000000;stroke-width:0.8;" x="180" xlink:href="#ma4dbb0c198" y="684.371422"/>
      </g>
     </g>
     <g id="text_11">
      <!-- 2000 -->
      <g transform="translate(147.55 688.170641)scale(0.1 -0.1)">
       <use xlink:href="#DejaVuSans-32"/>
       <use x="63.623047" xlink:href="#DejaVuSans-30"/>
       <use x="127.246094" xlink:href="#DejaVuSans-30"/>
       <use x="190.869141" xlink:href="#DejaVuSans-30"/>
      </g>
     </g>
    </g>
    <g id="ytick_4">
     <g id="line2d_12">
      <g>
       <use style="stroke:#000000;stroke-width:0.8;" x="180" xlink:href="#ma4dbb0c198" y="577.997133"/>
      </g>
     </g>
     <g id="text_12">
      <!-- 3000 -->
      <defs>
       <path d="M 40.578125 39.3125 
Q 47.65625 37.796875 51.625 33 
Q 55.609375 28.21875 55.609375 21.1875 
Q 55.609375 10.40625 48.1875 4.484375 
Q 40.765625 -1.421875 27.09375 -1.421875 
Q 22.515625 -1.421875 17.65625 -0.515625 
Q 12.796875 0.390625 7.625 2.203125 
L 7.625 11.71875 
Q 11.71875 9.328125 16.59375 8.109375 
Q 21.484375 6.890625 26.8125 6.890625 
Q 36.078125 6.890625 40.9375 10.546875 
Q 45.796875 14.203125 45.796875 21.1875 
Q 45.796875 27.640625 41.28125 31.265625 
Q 36.765625 34.90625 28.71875 34.90625 
L 20.21875 34.90625 
L 20.21875 43.015625 
L 29.109375 43.015625 
Q 36.375 43.015625 40.234375 45.921875 
Q 44.09375 48.828125 44.09375 54.296875 
Q 44.09375 59.90625 40.109375 62.90625 
Q 36.140625 65.921875 28.71875 65.921875 
Q 24.65625 65.921875 20.015625 65.03125 
Q 15.375 64.15625 9.8125 62.3125 
L 9.8125 71.09375 
Q 15.4375 72.65625 20.34375 73.4375 
Q 25.25 74.21875 29.59375 74.21875 
Q 40.828125 74.21875 47.359375 69.109375 
Q 53.90625 64.015625 53.90625 55.328125 
Q 53.90625 49.265625 50.4375 45.09375 
Q 46.96875 40.921875 40.578125 39.3125 
z
" id="DejaVuSans-33"/>
      </defs>
      <g transform="translate(147.55 581.796352)scale(0.1 -0.1)">
       <use xlink:href="#DejaVuSans-33"/>
       <use x="63.623047" xlink:href="#DejaVuSans-30"/>
       <use x="127.246094" xlink:href="#DejaVuSans-30"/>
       <use x="190.869141" xlink:href="#DejaVuSans-30"/>
      </g>
     </g>
    </g>
    <g id="ytick_5">
     <g id="line2d_13">
      <g>
       <use style="stroke:#000000;stroke-width:0.8;" x="180" xlink:href="#ma4dbb0c198" y="471.622844"/>
      </g>
     </g>
     <g id="text_13">
      <!-- 4000 -->
      <defs>
       <path d="M 37.796875 64.3125 
L 12.890625 25.390625 
L 37.796875 25.390625 
z
M 35.203125 72.90625 
L 47.609375 72.90625 
L 47.609375 25.390625 
L 58.015625 25.390625 
L 58.015625 17.1875 
L 47.609375 17.1875 
L 47.609375 0 
L 37.796875 0 
L 37.796875 17.1875 
L 4.890625 17.1875 
L 4.890625 26.703125 
z
" id="DejaVuSans-34"/>
      </defs>
      <g transform="translate(147.55 475.422063)scale(0.1 -0.1)">
       <use xlink:href="#DejaVuSans-34"/>
       <use x="63.623047" xlink:href="#DejaVuSans-30"/>
       <use x="127.246094" xlink:href="#DejaVuSans-30"/>
       <use x="190.869141" xlink:href="#DejaVuSans-30"/>
      </g>
     </g>
    </g>
    <g id="ytick_6">
     <g id="line2d_14">
      <g>
       <use style="stroke:#000000;stroke-width:0.8;" x="180" xlink:href="#ma4dbb0c198" y="365.248555"/>
      </g>
     </g>
     <g id="text_14">
      <!-- 5000 -->
      <g transform="translate(147.55 369.047774)scale(0.1 -0.1)">
       <use xlink:href="#DejaVuSans-35"/>
       <use x="63.623047" xlink:href="#DejaVuSans-30"/>
       <use x="127.246094" xlink:href="#DejaVuSans-30"/>
       <use x="190.869141" xlink:href="#DejaVuSans-30"/>
      </g>
     </g>
    </g>
    <g id="ytick_7">
     <g id="line2d_15">
      <g>
       <use style="stroke:#000000;stroke-width:0.8;" x="180" xlink:href="#ma4dbb0c198" y="258.874266"/>
      </g>
     </g>
     <g id="text_15">
      <!-- 6000 -->
      <defs>
       <path d="M 33.015625 40.375 
Q 26.375 40.375 22.484375 35.828125 
Q 18.609375 31.296875 18.609375 23.390625 
Q 18.609375 15.53125 22.484375 10.953125 
Q 26.375 6.390625 33.015625 6.390625 
Q 39.65625 6.390625 43.53125 10.953125 
Q 47.40625 15.53125 47.40625 23.390625 
Q 47.40625 31.296875 43.53125 35.828125 
Q 39.65625 40.375 33.015625 40.375 
z
M 52.59375 71.296875 
L 52.59375 62.3125 
Q 48.875 64.0625 45.09375 64.984375 
Q 41.3125 65.921875 37.59375 65.921875 
Q 27.828125 65.921875 22.671875 59.328125 
Q 17.53125 52.734375 16.796875 39.40625 
Q 19.671875 43.65625 24.015625 45.921875 
Q 28.375 48.1875 33.59375 48.1875 
Q 44.578125 48.1875 50.953125 41.515625 
Q 57.328125 34.859375 57.328125 23.390625 
Q 57.328125 12.15625 50.6875 5.359375 
Q 44.046875 -1.421875 33.015625 -1.421875 
Q 20.359375 -1.421875 13.671875 8.265625 
Q 6.984375 17.96875 6.984375 36.375 
Q 6.984375 53.65625 15.1875 63.9375 
Q 23.390625 74.21875 37.203125 74.21875 
Q 40.921875 74.21875 44.703125 73.484375 
Q 48.484375 72.75 52.59375 71.296875 
z
" id="DejaVuSans-36"/>
      </defs>
      <g transform="translate(147.55 262.673484)scale(0.1 -0.1)">
       <use xlink:href="#DejaVuSans-36"/>
       <use x="63.623047" xlink:href="#DejaVuSans-30"/>
       <use x="127.246094" xlink:href="#DejaVuSans-30"/>
       <use x="190.869141" xlink:href="#DejaVuSans-30"/>
      </g>
     </g>
    </g>
    <g id="ytick_8">
     <g id="line2d_16">
      <g>
       <use style="stroke:#000000;stroke-width:0.8;" x="180" xlink:href="#ma4dbb0c198" y="152.499977"/>
      </g>
     </g>
     <g id="text_16">
      <!-- 7000 -->
      <g transform="translate(147.55 156.299195)scale(0.1 -0.1)">
       <use xlink:href="#DejaVuSans-37"/>
       <use x="63.623047" xlink:href="#DejaVuSans-30"/>
       <use x="127.246094" xlink:href="#DejaVuSans-30"/>
       <use x="190.869141" xlink:href="#DejaVuSans-30"/>
      </g>
     </g>
    </g>
   </g>
   <g id="line2d_17">
    <path clip-path="url(#pf6f4fe4c89)" d="M 230.727273 280.149124 
L 236.313355 343.973697 
L 241.899438 385.45967 
L 247.485521 345.03744 
L 253.071604 331.208782 
L 258.657686 388.650898 
L 264.243769 202.495893 
L 269.829852 283.340352 
L 275.415935 269.511695 
L 281.002017 354.611126 
L 286.5881 258.874266 
L 292.174183 213.133321 
L 297.760265 293.977781 
L 303.346348 407.79827 
L 308.932431 492.897702 
L 314.518514 342.909954 
L 320.104596 281.212866 
L 325.690679 290.786552 
L 331.276762 354.611126 
L 336.862844 312.06141 
L 342.448927 280.149124 
L 348.03501 258.874266 
L 353.621093 251.428066 
L 359.207175 245.045608 
L 364.793258 418.435699 
L 370.379341 365.248555 
L 375.965424 226.961979 
L 381.551506 248.236837 
L 387.137589 281.212866 
L 392.723672 312.06141 
L 398.309754 396.097099 
L 403.895837 343.973697 
L 409.48192 397.160841 
L 415.068003 271.63918 
L 420.654085 373.758498 
L 426.240168 312.06141 
L 431.826251 264.19298 
L 437.412334 221.643265 
L 442.998416 322.698839 
L 448.584499 269.511695 
L 454.170582 365.248555 
L 459.756664 322.698839 
L 465.342747 216.32455 
L 470.92883 138.671319 
L 476.514913 230.153208 
L 482.100995 269.511695 
L 487.687078 312.06141 
L 493.273161 248.236837 
L 498.859244 343.973697 
L 504.445326 369.503526 
L 510.031409 409.925756 
L 515.617492 299.296496 
L 521.203574 435.455586 
L 526.789657 301.423981 
L 537.961823 343.973697 
L 543.547905 195.049692 
L 549.133988 141.862548 
L 554.720071 450.347986 
L 560.306153 365.248555 
L 565.892236 439.710557 
L 571.478319 343.973697 
L 577.064402 375.885984 
L 582.650484 365.248555 
L 588.236567 301.423981 
L 593.82265 301.423981 
L 599.408733 375.885984 
L 604.994815 280.149124 
L 610.580898 272.702923 
L 616.166981 319.50761 
L 621.753063 482.260273 
L 627.339146 343.973697 
L 632.925229 216.32455 
L 638.511312 357.802355 
L 644.097394 266.320466 
L 649.683477 216.32455 
L 655.26956 354.611126 
L 660.855643 288.659067 
L 666.441725 250.364323 
L 672.027808 217.388293 
L 677.613891 364.184812 
L 683.199973 374.822241 
L 688.786056 362.057326 
L 694.372139 380.140955 
L 699.958222 301.423981 
L 705.544304 318.443868 
L 711.130387 239.726894 
L 716.71647 280.149124 
L 722.302552 207.814607 
L 727.888635 322.698839 
L 733.474718 386.523413 
L 739.060801 301.423981 
L 744.646883 358.866097 
L 750.232966 350.356154 
L 755.819049 290.786552 
L 761.405132 184.412263 
L 766.991214 407.79827 
L 772.577297 354.611126 
L 778.16338 258.874266 
L 783.749462 418.435699 
L 789.335545 418.435699 
L 794.921628 407.79827 
L 800.507711 375.885984 
L 806.093793 248.236837 
L 811.679876 312.06141 
L 817.265959 354.611126 
L 822.852042 290.786552 
L 828.438124 386.523413 
L 834.024207 290.786552 
L 839.61029 207.814607 
L 845.196372 203.559635 
L 850.782455 290.786552 
L 856.368538 237.599408 
L 861.954621 310.997667 
L 867.540703 376.949727 
L 873.126786 343.973697 
L 878.712869 293.977781 
L 884.298952 372.694755 
L 889.885034 301.423981 
L 895.471117 280.149124 
L 901.0572 354.611126 
L 906.643282 280.149124 
L 912.229365 189.730978 
L 917.815448 253.555551 
L 923.401531 312.06141 
L 928.987613 269.511695 
L 934.573696 445.029272 
L 940.159779 359.92984 
L 945.745861 372.694755 
L 951.331944 347.164926 
L 956.918027 386.523413 
L 962.50411 216.32455 
L 968.090192 301.423981 
L 973.676275 296.105267 
L 979.262358 253.555551 
L 984.848441 365.248555 
L 990.434523 258.874266 
L 996.020606 397.160841 
L 1001.606689 328.017554 
L 1007.192771 223.77075 
L 1012.778854 331.208782 
L 1018.364937 348.228669 
L 1023.95102 414.180728 
L 1029.537102 322.698839 
L 1035.123185 237.599408 
L 1040.709268 350.356154 
L 1046.295351 295.041524 
L 1051.881433 333.336268 
L 1057.467516 312.06141 
L 1063.053599 258.874266 
L 1074.225764 386.523413 
L 1079.811847 324.826325 
L 1085.39793 416.308214 
L 1090.984012 354.611126 
L 1096.570095 301.423981 
L 1102.156178 346.101183 
L 1107.74226 373.758498 
L 1113.328343 382.268441 
L 1118.914426 241.854379 
L 1124.500509 269.511695 
L 1130.086591 258.874266 
L 1135.672674 330.145039 
L 1141.258757 304.61521 
L 1146.84484 226.961979 
L 1152.430922 301.423981 
L 1158.017005 386.523413 
L 1163.603088 226.961979 
L 1169.18917 301.423981 
L 1174.775253 205.687121 
L 1180.361336 365.248555 
L 1185.947419 429.073128 
L 1191.533501 321.635096 
L 1197.119584 262.065494 
L 1202.705667 256.74678 
L 1208.29175 245.045608 
L 1213.877832 385.45967 
L 1219.463915 156.754948 
L 1225.049998 431.200614 
L 1230.63608 341.846211 
L 1236.222163 386.523413 
L 1241.808246 289.72281 
L 1245.266081 314.561702 
L 1245.266081 314.561702 
" style="fill:none;stroke:#1f77b4;stroke-linecap:square;stroke-width:1.5;"/>
   </g>
   <g id="line2d_18">
    <path clip-path="url(#pf6f4fe4c89)" d="M 230.748049 280.149124 
L 236.334132 343.973697 
L 241.920215 383.332184 
L 247.506297 346.101183 
L 253.09238 331.208782 
L 258.678463 389.714641 
L 264.264546 196.113435 
L 269.850628 289.72281 
L 275.436711 269.511695 
L 281.022794 350.356154 
L 286.608876 257.810523 
L 292.194959 217.388293 
L 297.781042 295.041524 
L 303.367125 407.79827 
L 308.953207 491.833959 
L 314.53929 341.846211 
L 320.125373 279.085381 
L 325.711456 295.041524 
L 331.297538 350.356154 
L 336.883621 316.316382 
L 342.469704 280.149124 
L 348.055786 255.683037 
L 353.641869 252.491808 
L 359.227952 247.173094 
L 364.814035 418.435699 
L 370.400117 365.248555 
L 375.9862 224.834493 
L 381.572283 250.364323 
L 387.158366 280.149124 
L 392.744448 312.06141 
L 398.330531 395.033356 
L 403.916614 346.101183 
L 409.502696 392.90587 
L 415.088779 273.766666 
L 420.674862 371.631012 
L 426.260945 316.316382 
L 431.847027 258.874266 
L 437.43311 226.961979 
L 443.019193 318.443868 
L 448.605275 273.766666 
L 454.191358 365.248555 
L 459.777441 318.443868 
L 465.363524 215.260807 
L 470.949606 143.990034 
L 476.535689 230.153208 
L 482.121772 269.511695 
L 487.707855 312.06141 
L 493.293937 248.236837 
L 498.88002 343.973697 
L 504.466103 365.248555 
L 510.052185 410.989499 
L 515.638268 301.423981 
L 521.224351 436.519328 
L 526.810434 301.423981 
L 532.396516 319.50761 
L 537.982599 347.164926 
L 543.568682 195.049692 
L 549.154765 141.862548 
L 554.740847 450.347986 
L 560.32693 365.248555 
L 565.913013 436.519328 
L 571.499095 347.164926 
L 577.085178 375.885984 
L 582.671261 365.248555 
L 588.257344 301.423981 
L 593.843426 301.423981 
L 599.429509 375.885984 
L 605.015592 280.149124 
L 610.601674 269.511695 
L 616.187757 322.698839 
L 621.77384 482.260273 
L 627.359923 342.909954 
L 632.946005 217.388293 
L 638.532088 354.611126 
L 644.118171 269.511695 
L 649.704254 216.32455 
L 655.290336 354.611126 
L 660.876419 285.467838 
L 666.462502 253.555551 
L 672.048584 215.260807 
L 677.634667 360.993583 
L 683.22075 379.077212 
L 688.806833 358.866097 
L 694.392915 380.140955 
L 699.978998 305.678953 
L 705.565081 313.125153 
L 711.151164 239.726894 
L 716.737246 284.404095 
L 722.323329 208.87835 
L 727.909412 322.698839 
L 733.495494 386.523413 
L 739.081577 299.296496 
L 744.66766 356.738612 
L 750.253743 354.611126 
L 755.839825 290.786552 
L 761.425908 181.221035 
L 767.011991 406.734528 
L 772.598073 358.866097 
L 778.184156 258.874266 
L 783.770239 418.435699 
L 789.356322 418.435699 
L 794.942404 407.79827 
L 800.528487 375.885984 
L 806.11457 248.236837 
L 811.700653 308.870182 
L 817.286735 357.802355 
L 822.872818 290.786552 
L 828.458901 386.523413 
L 834.044983 290.786552 
L 839.631066 205.687121 
L 845.217149 202.495893 
L 850.803232 293.977781 
L 856.389314 237.599408 
L 867.56148 379.077212 
L 873.147563 345.03744 
L 878.733645 290.786552 
L 884.319728 374.822241 
L 889.905811 300.360238 
L 895.491893 282.276609 
L 901.077976 354.611126 
L 906.664059 280.149124 
L 912.250142 184.412263 
L 917.836224 258.874266 
L 923.422307 310.997667 
L 929.00839 270.575438 
L 934.594473 439.710557 
L 940.180555 362.057326 
L 945.766638 374.822241 
L 951.352721 348.228669 
L 956.938803 386.523413 
L 962.524886 216.32455 
L 968.110969 301.423981 
L 973.697052 293.977781 
L 979.283134 255.683037 
L 984.869217 365.248555 
L 990.4553 255.683037 
L 996.041382 397.160841 
L 1001.627465 328.017554 
L 1007.213548 224.834493 
L 1012.799631 333.336268 
L 1018.385713 343.973697 
L 1023.971796 418.435699 
L 1029.557879 322.698839 
L 1035.143962 234.408179 
L 1040.730044 347.164926 
L 1046.316127 300.360238 
L 1051.90221 334.400011 
L 1057.488292 306.742696 
L 1063.074375 264.19298 
L 1068.660458 322.698839 
L 1074.246541 386.523413 
L 1079.832623 322.698839 
L 1085.418706 418.435699 
L 1091.004789 354.611126 
L 1096.590872 301.423981 
L 1102.176954 342.909954 
L 1107.763037 376.949727 
L 1113.34912 375.885984 
L 1118.935202 248.236837 
L 1124.521285 269.511695 
L 1130.107368 258.874266 
L 1135.693451 328.017554 
L 1141.279533 302.487724 
L 1146.865616 231.216951 
L 1152.451699 300.360238 
L 1158.037781 386.523413 
L 1163.623864 228.025722 
L 1169.209947 298.232753 
L 1174.79603 208.87835 
L 1180.382112 365.248555 
L 1185.968195 422.690671 
L 1191.554278 323.762582 
L 1197.140361 264.19298 
L 1202.726443 258.874266 
L 1208.312526 240.790637 
L 1213.898609 384.395927 
L 1219.484691 159.946177 
L 1225.070774 431.200614 
L 1230.656857 341.846211 
L 1236.24294 388.650898 
L 1241.829022 287.595324 
L 1245.272727 315.622296 
L 1245.272727 315.622296 
" style="fill:none;stroke:#ff7f0e;stroke-linecap:square;stroke-width:1.5;"/>
   </g>
   <g id="patch_3">
    <path d="M 180 897.12 
L 180 120.96 
" style="fill:none;stroke:#000000;stroke-linecap:square;stroke-linejoin:miter;stroke-width:0.8;"/>
   </g>
   <g id="patch_4">
    <path d="M 1296 897.12 
L 1296 120.96 
" style="fill:none;stroke:#000000;stroke-linecap:square;stroke-linejoin:miter;stroke-width:0.8;"/>
   </g>
   <g id="patch_5">
    <path d="M 180 897.12 
L 1296 897.12 
" style="fill:none;stroke:#000000;stroke-linecap:square;stroke-linejoin:miter;stroke-width:0.8;"/>
   </g>
   <g id="patch_6">
    <path d="M 180 120.96 
L 1296 120.96 
" style="fill:none;stroke:#000000;stroke-linecap:square;stroke-linejoin:miter;stroke-width:0.8;"/>
   </g>
   <g id="legend_1">
    <g id="patch_7">
     <path d="M 683.485937 29.214125 
L 796.514062 29.214125 
Q 798.514062 29.214125 798.514062 27.214125 
L 798.514062 13.536 
Q 798.514062 11.536 796.514062 11.536 
L 683.485937 11.536 
Q 681.485937 11.536 681.485937 13.536 
L 681.485937 27.214125 
Q 681.485937 29.214125 683.485937 29.214125 
z
" style="fill:#4c4c4c;opacity:0.5;stroke:#4c4c4c;stroke-linejoin:miter;"/>
    </g>
    <g id="patch_8">
     <path d="M 681.485937 27.214125 
L 794.514062 27.214125 
Q 796.514062 27.214125 796.514062 25.214125 
L 796.514062 11.536 
Q 796.514062 9.536 794.514062 9.536 
L 681.485937 9.536 
Q 679.485937 9.536 679.485937 11.536 
L 679.485937 25.214125 
Q 679.485937 27.214125 681.485937 27.214125 
z
" style="fill:#ffffff;stroke:#cccccc;stroke-linejoin:miter;"/>
    </g>
    <g id="line2d_19">
     <path d="M 683.485937 17.634438 
L 703.485937 17.634438 
" style="fill:none;stroke:#1f77b4;stroke-linecap:square;stroke-width:1.5;"/>
    </g>
    <g id="line2d_20"/>
    <g id="text_17">
     <!-- get -->
     <defs>
      <path d="M 45.40625 27.984375 
Q 45.40625 37.75 41.375 43.109375 
Q 37.359375 48.484375 30.078125 48.484375 
Q 22.859375 48.484375 18.828125 43.109375 
Q 14.796875 37.75 14.796875 27.984375 
Q 14.796875 18.265625 18.828125 12.890625 
Q 22.859375 7.515625 30.078125 7.515625 
Q 37.359375 7.515625 41.375 12.890625 
Q 45.40625 18.265625 45.40625 27.984375 
z
M 54.390625 6.78125 
Q 54.390625 -7.171875 48.1875 -13.984375 
Q 42 -20.796875 29.203125 -20.796875 
Q 24.46875 -20.796875 20.265625 -20.09375 
Q 16.0625 -19.390625 12.109375 -17.921875 
L 12.109375 -9.1875 
Q 16.0625 -11.328125 19.921875 -12.34375 
Q 23.78125 -13.375 27.78125 -13.375 
Q 36.625 -13.375 41.015625 -8.765625 
Q 45.40625 -4.15625 45.40625 5.171875 
L 45.40625 9.625 
Q 42.625 4.78125 38.28125 2.390625 
Q 33.9375 0 27.875 0 
Q 17.828125 0 11.671875 7.65625 
Q 5.515625 15.328125 5.515625 27.984375 
Q 5.515625 40.671875 11.671875 48.328125 
Q 17.828125 56 27.875 56 
Q 33.9375 56 38.28125 53.609375 
Q 42.625 51.21875 45.40625 46.390625 
L 45.40625 54.6875 
L 54.390625 54.6875 
z
" id="DejaVuSans-67"/>
      <path d="M 56.203125 29.59375 
L 56.203125 25.203125 
L 14.890625 25.203125 
Q 15.484375 15.921875 20.484375 11.0625 
Q 25.484375 6.203125 34.421875 6.203125 
Q 39.59375 6.203125 44.453125 7.46875 
Q 49.3125 8.734375 54.109375 11.28125 
L 54.109375 2.78125 
Q 49.265625 0.734375 44.1875 -0.34375 
Q 39.109375 -1.421875 33.890625 -1.421875 
Q 20.796875 -1.421875 13.15625 6.1875 
Q 5.515625 13.8125 5.515625 26.8125 
Q 5.515625 40.234375 12.765625 48.109375 
Q 20.015625 56 32.328125 56 
Q 43.359375 56 49.78125 48.890625 
Q 56.203125 41.796875 56.203125 29.59375 
z
M 47.21875 32.234375 
Q 47.125 39.59375 43.09375 43.984375 
Q 39.0625 48.390625 32.421875 48.390625 
Q 24.90625 48.390625 20.390625 44.140625 
Q 15.875 39.890625 15.1875 32.171875 
z
" id="DejaVuSans-65"/>
      <path d="M 18.3125 70.21875 
L 18.3125 54.6875 
L 36.8125 54.6875 
L 36.8125 47.703125 
L 18.3125 47.703125 
L 18.3125 18.015625 
Q 18.3125 11.328125 20.140625 9.421875 
Q 21.96875 7.515625 27.59375 7.515625 
L 36.8125 7.515625 
L 36.8125 0 
L 27.59375 0 
Q 17.1875 0 13.234375 3.875 
Q 9.28125 7.765625 9.28125 18.015625 
L 9.28125 47.703125 
L 2.6875 47.703125 
L 2.6875 54.6875 
L 9.28125 54.6875 
L 9.28125 70.21875 
z
" id="DejaVuSans-74"/>
     </defs>
     <g transform="translate(711.485937 21.134438)scale(0.1 -0.1)">
      <use xlink:href="#DejaVuSans-67"/>
      <use x="63.476562" xlink:href="#DejaVuSans-65"/>
      <use x="125" xlink:href="#DejaVuSans-74"/>
     </g>
    </g>
    <g id="line2d_21">
     <path d="M 747.907812 17.634438 
L 767.907812 17.634438 
" style="fill:none;stroke:#ff7f0e;stroke-linecap:square;stroke-width:1.5;"/>
    </g>
    <g id="line2d_22"/>
    <g id="text_18">
     <!-- put -->
     <defs>
      <path d="M 18.109375 8.203125 
L 18.109375 -20.796875 
L 9.078125 -20.796875 
L 9.078125 54.6875 
L 18.109375 54.6875 
L 18.109375 46.390625 
Q 20.953125 51.265625 25.265625 53.625 
Q 29.59375 56 35.59375 56 
Q 45.5625 56 51.78125 48.09375 
Q 58.015625 40.1875 58.015625 27.296875 
Q 58.015625 14.40625 51.78125 6.484375 
Q 45.5625 -1.421875 35.59375 -1.421875 
Q 29.59375 -1.421875 25.265625 0.953125 
Q 20.953125 3.328125 18.109375 8.203125 
z
M 48.6875 27.296875 
Q 48.6875 37.203125 44.609375 42.84375 
Q 40.53125 48.484375 33.40625 48.484375 
Q 26.265625 48.484375 22.1875 42.84375 
Q 18.109375 37.203125 18.109375 27.296875 
Q 18.109375 17.390625 22.1875 11.75 
Q 26.265625 6.109375 33.40625 6.109375 
Q 40.53125 6.109375 44.609375 11.75 
Q 48.6875 17.390625 48.6875 27.296875 
z
" id="DejaVuSans-70"/>
      <path d="M 8.5 21.578125 
L 8.5 54.6875 
L 17.484375 54.6875 
L 17.484375 21.921875 
Q 17.484375 14.15625 20.5 10.265625 
Q 23.53125 6.390625 29.59375 6.390625 
Q 36.859375 6.390625 41.078125 11.03125 
Q 45.3125 15.671875 45.3125 23.6875 
L 45.3125 54.6875 
L 54.296875 54.6875 
L 54.296875 0 
L 45.3125 0 
L 45.3125 8.40625 
Q 42.046875 3.421875 37.71875 1 
Q 33.40625 -1.421875 27.6875 -1.421875 
Q 18.265625 -1.421875 13.375 4.4375 
Q 8.5 10.296875 8.5 21.578125 
z
M 31.109375 56 
z
" id="DejaVuSans-75"/>
     </defs>
     <g transform="translate(775.907812 21.134438)scale(0.1 -0.1)">
      <use xlink:href="#DejaVuSans-70"/>
      <use x="63.476562" xlink:href="#DejaVuSans-75"/>
      <use x="126.855469" xlink:href="#DejaVuSans-74"/>
     </g>
    </g>
   </g>
  </g>
 </g>
 <defs>
  <clipPath id="pf6f4fe4c89">
   <rect height="776.16" width="1116" x="180" y="120.96"/>
  </clipPath>
 </defs>
</svg>
